<svg width="352" height="353" viewBox="0 0 352 353" fill="none" xmlns="http://www.w3.org/2000/svg">
<path d="M242.72 176.5L342.79 76.43C355.07 64.15 355.07 44.24 342.79 31.95L320.55 9.71C308.27 -2.57 288.36 -2.57 276.07 9.71L176 109.78L75.93 9.71C63.65 -2.57 43.74 -2.57 31.45 9.71L9.21 31.95C-3.07 44.23 -3.07 64.14 9.21 76.43L109.28 176.5L9.21 276.57C-3.07 288.85 -3.07 308.76 9.21 321.05L31.45 343.29C43.73 355.57 63.65 355.57 75.93 343.29L176 243.22L276.07 343.29C288.35 355.57 308.27 355.57 320.55 343.29L342.79 321.05C355.07 308.77 355.07 288.86 342.79 276.57L242.72 176.5Z" fill="black"/>
</svg>
